:FULLY-SPECIFIED
:FORCE-ALL-JOINTS-BE-3DOF
:DEGREES
469
root 10.879 17.3719 29.9322 5.473 3.41617 3.14006
lfemur -3.54813 3.15697 -31.0185
ltibia 21.4355 0 0
lfoot -16.1742 4.663 0
ltoes -3.62803 0 0
rfemur -35.3039 -0.245261 19.6713
rtibia 61.1662 0 0
rfoot -20.9296 -10.9989 0
rtoes -22.8867 0 0
lowerback -7.51072 -3.60581 -3.96716
upperback 0.49632 -4.57073 1.83098
thorax 5.15241 -2.38368 3.63804
lowerneck -26.6229 -3.69715 -11.7635
upperneck 26.8623 -4.33686 11.9996
head 13.7453 -1.4456 5.81021
lclavicle 1.04567e-14 6.28376e-15 0
lhumerus -21.2742 -20.9853 100.794
lradius 28.8 0 0
lwrist 0.878232 0 0
lhand -13.4753 -27.1695 0
lfingers 8.06913 0 0
lthumb 16.0298 6.23069 0
rclavicle 1.04567e-14 6.28376e-15 0
rhumerus -50.989 8.33717 -96.1553
rradius 38.1576 0 0
rwrist -16.1544 0 0
rhand -34.1958 -30.5469 0
rfingers 8.06913 0 0
rthumb -3.97009 -64.4645 0
470
root 10.8806 17.368 30.1147 5.56871 3.49886 3.18438
lfemur -2.41619 3.12079 -31.153
ltibia 20.8475 0 0
lfoot -16.1495 4.72815 0
ltoes -4.32001 0 0
rfemur -36.0805 -0.114631 19.8818
rtibia 60.9846 0 0
rfoot -21.3563 -11.2382 0
rtoes -23.3299 0 0
lowerback -7.5702 -3.70416 -4.02152
upperback 0.469696 -4.69948 1.86886
thorax 5.17336 -2.44843 3.69447
lowerneck -26.894 -3.70777 -11.8436
upperneck 27.0769 -4.34784 12.1069
head 13.8618 -1.44268 5.8625
lclavicle 1.09351e-14 6.66207e-15 0
lhumerus -21.69 -21.2431 101.84
lradius 29.2638 0 0
lwrist 1.01845 0 0
lhand -13.495 -27.4466 0
lfingers 8.13804 0 0
lthumb 16.2586 6.23203 0
rclavicle 1.09351e-14 6.66207e-15 0
rhumerus -51.6308 8.15122 -96.766
rradius 38.1764 0 0
rwrist -16.1385 0 0
rhand -34.4304 -30.6366 0
rfingers 8.13804 0 0
rthumb -3.94849 -64.8447 0
471
root 10.8818 17.3637 30.2997 5.65909 3.57782 3.22582
lfemur -1.30149 3.08312 -31.2643
ltibia 20.2553 0 0
lfoot -16.1145 4.78905 0
ltoes -4.99757 0 0
rfemur -36.8199 0.0138988 20.0755
rtibia 60.7652 0 0
rfoot -21.7615 -11.466 0
rtoes -23.7501 0 0
lowerback -7.62362 -3.79839 -4.07227
upperback 0.443201 -4.82293 1.90485
thorax 5.19049 -2.51046 3.74749
lowerneck -27.1425 -3.71572 -11.9144
upperneck 27.2699 -4.35572 12.2042
head 13.967 -1.43883 5.90998
lclavicle 1.13983e-14 7.0296e-15 0
lhumerus -22.0843 -21.4825 102.799
lradius 29.7004 0 0
lwrist 1.15565 0 0
lhand -13.5053 -27.7007 0
lfingers 8.20034 0 0
lthumb 16.4727 6.22917 0
rclavicle 1.13983e-14 7.0296e-15 0
rhumerus -52.2272 7.96291 -97.3017
rradius 38.1692 0 0
rwrist -16.112 0 0
rhand -34.6379 -30.7043 0
rfingers 8.20034 0 0
rthumb -3.92461 -65.1751 0
472
root 10.8824 17.3589 30.4867 5.74424 3.65311 3.26445
lfemur -0.20436 3.04404 -31.3531
ltibia 19.6595 0 0
lfoot -16.0693 4.84578 0
ltoes -5.66062 0 0
rfemur -37.5228 0.140295 20.2527
rtibia 60.5093 0 0
rfoot -22.1457 -11.6825 0
rtoes -24.1477 0 0
lowerback -7.67112 -3.88856 -4.11949
upperback 0.416851 -4.94115 1.93899
thorax 5.20391 -2.56981 3.79715
lowerneck -27.369 -3.72109 -11.9762
upperneck 27.4416 -4.36059 12.2919
head 14.0613 -1.4341 5.95278
lclavicle 1.18462e-14 7.38641e-15 0
lhumerus -22.4575 -21.7037 103.675
lradius 30.11 0 0
lwrist 1.28981 0 0
lhand -13.5066 -27.9323 0
lfingers 8.25621 0 0
lthumb 16.6723 6.22224 0
rclavicle 1.18462e-14 7.38641e-15 0
rhumerus -52.7793 7.77244 -97.7642
rradius 38.137 0 0
rwrist -16.0752 0 0
rhand -34.8192 -30.7506 0
rfingers 8.25621 0 0
rthumb -3.89852 -65.4569 0
473
root 10.8825 17.3536 30.6755 5.82426 3.7248 3.30032
lfemur 0.874878 3.00362 -31.42
ltibia 19.0607 0 0
lfoot -16.0145 4.89842 0
ltoes -6.3091 0 0
rfemur -38.1898 0.264524 20.4138
rtibia 60.2182 0 0
rfoot -22.5092 -11.8878 0
rtoes -24.523 0 0
lowerback -7.71285 -3.97471 -4.16327
upperback 0.390664 -5.05423 1.97131
thorax 5.21372 -2.62652 3.84353
lowerneck -27.5741 -3.72395 -12.0292
upperneck 27.5927 -4.36255 12.3702
head 14.1449 -1.42852 5.99101
lclavicle 1.22791e-14 7.73256e-15 0
lhumerus -22.8099 -21.9071 104.469
lradius 30.4934 0 0
lwrist 1.42094 0 0
lhand -13.499 -28.142 0
lfingers 8.30578 0 0
lthumb 16.8579 6.21138 0
rclavicle 1.22791e-14 7.73256e-15 0
rhumerus -53.2881 7.58006 -98.1556
rradius 38.0806 0 0
rwrist -16.0287 0 0
rhand -34.9748 -30.7761 0
rfingers 8.30578 0 0
rthumb -3.87033 -65.6916 0
474
root 10.8821 17.3479 30.8658 5.89925 3.79293 3.3335
lfemur 1.9359 2.96194 -31.4658
ltibia 18.4596 0 0
lfoot -15.9503 4.94708 0
ltoes -6.94293 0 0
rfemur -38.8214 0.38655 20.5592
rtibia 59.8934 0 0
rfoot -22.8523 -12.0821 0
rtoes -24.8765 0 0
lowerback -7.74897 -4.05691 -4.20366
upperback 0.364654 -5.16221 2.00184
thorax 5.22004 -2.68062 3.88669
lowerneck -27.7581 -3.72438 -12.0736
upperneck 27.7236 -4.36168 12.4393
head 14.2181 -1.42211 6.02477
lclavicle 1.2697e-14 8.0681e-15 0
lhumerus -23.142 -22.0932 105.184
lradius 30.851 0 0
lwrist 1.549 0 0
lhand -13.4829 -28.3302 0
lfingers 8.34924 0 0
lthumb 17.0296 6.19672 0
rclavicle 1.2697e-14 8.0681e-15 0
rhumerus -53.7544 7.38598 -98.4778
rradius 38.0007 0 0
rwrist -15.9726 0 0
rhand -35.1056 -30.7815 0
rfingers 8.34924 0 0
rthumb -3.84013 -65.8804 0
475
root 10.8811 17.3416 31.0571 5.9693 3.85755 3.36403
lfemur 2.97837 2.91908 -31.4911
ltibia 17.8566 0 0
lfoot -15.8771 4.99182 0
ltoes -7.56204 0 0
rfemur -39.4183 0.50634 20.6894
rtibia 59.5362 0 0
rfoot -23.1754 -12.2657 0
rtoes -25.2086 0 0
lowerback -7.77962 -4.13522 -4.24075
upperback 0.338841 -5.26519 2.03061
thorax 5.22298 -2.73214 3.9267
lowerneck -27.9216 -3.72247 -12.1097
upperneck 27.835 -4.35809 12.4994
head 14.2811 -1.41491 6.0542
lclavicle 1.31002e-14 8.39308e-15 0
lhumerus -23.4542 -22.2624 105.82
lradius 31.1834 0 0
lwrist 1.67401 0 0
lhand -13.4586 -28.4975 0
lfingers 8.38673 0 0
lthumb 17.1878 6.17841 0
rclavicle 1.31002e-14 8.39308e-15 0
rhumerus -54.1793 7.19042 -98.7328
rradius 37.8982 0 0
rwrist -15.9074 0 0
rhand -35.2121 -30.7675 0
rfingers 8.38673 0 0
rthumb -3.808 -66.0247 0
476
root 10.8795 17.335 31.2492 6.03451 3.91874 3.39198
lfemur 4.00196 2.87512 -31.4964
ltibia 17.2525 0 0
lfoot -15.7954 5.03275 0
ltoes -8.16636 0 0
rfemur -39.981 0.62386 20.8046
rtibia 59.1481 0 0
rfoot -23.4789 -12.4387 0
rtoes -25.5197 0 0
lowerback -7.80496 -4.20969 -4.2746
upperback 0.313239 -5.36323 2.05765
thorax 5.22263 -2.78114 3.96363
lowerneck -28.0652 -3.71828 -12.1377
upperneck 27.9273 -4.35186 12.5508
head 14.3343 -1.40696 6.0794
lclavicle 1.34886e-14 8.70756e-15 0
lhumerus -23.7467 -22.415 106.381
lradius 31.491 0 0
lwrist 1.79593 0 0
lhand -13.4264 -28.6445 0
lfingers 8.41842 0 0
lthumb 17.3328 6.15657 0
rclavicle 1.34886e-14 8.70756e-15 0
rhumerus -54.5637 6.9936 -98.9226
rradius 37.7739 0 0
rwrist -15.8335 0 0
rhand -35.2951 -30.7346 0
rfingers 8.41842 0 0
rthumb -3.77405 -66.1258 0
477
root 10.8773 17.3278 31.4417 6.09498 3.97654 3.41742
lfemur 5.00636 2.83012 -31.4825
ltibia 16.6477 0 0
lfoot -15.7053 5.06994 0
ltoes -8.75582 0 0
rfemur -40.5102 0.739076 20.9052
rtibia 58.7303 0 0
rfoot -23.7632 -12.6013 0
rtoes -25.8101 0 0
lowerback -7.82514 -4.28039 -4.30531
upperback 0.287866 -5.4564 2.083
thorax 5.21912 -2.82764 3.99754
lowerneck -28.1894 -3.7119 -12.1578
upperneck 28.0012 -4.34308 12.5937
head 14.3779 -1.39828 6.10049
lclavicle 1.38625e-14 9.0116e-15 0
lhumerus -24.0199 -22.5515 106.867
lradius 31.7745 0 0
lwrist 1.91477 0 0
lhand -13.3865 -28.7716 0
lfingers 8.44447 0 0
lthumb 17.4649 6.13134 0
rclavicle 1.38625e-14 9.0116e-15 0
rhumerus -54.9086 6.79576 -99.049
rradius 37.6287 0 0
rwrist -15.7511 0 0
rhand -35.3552 -30.6836 0
rfingers 8.44447 0 0
rthumb -3.73835 -66.185 0
